<mxfile host="app.diagrams.net" modified="2023-01-16T13:25:14.616Z" agent="5.0 (Windows NT 10.0; Win64; x64) AppleWebKit/537.36 (KHTML, like Gecko) Chrome/108.0.0.0 Safari/537.36" etag="iNVhRAuvIijRD4I0R1AV" version="20.8.5" type="github">
  <diagram id="WnnT9eaO3p0BWbKeblLl" name="Page-1">
    <mxGraphModel dx="1834" dy="1164" grid="0" gridSize="10" guides="1" tooltips="1" connect="1" arrows="1" fold="1" page="0" pageScale="1" pageWidth="827" pageHeight="1169" math="0" shadow="0">
      <root>
        <mxCell id="0" />
        <mxCell id="1" parent="0" />
        <mxCell id="kuhHr71bj72E31eIpp_Y-3" value="" style="edgeStyle=none;curved=1;rounded=0;orthogonalLoop=1;jettySize=auto;html=1;fontSize=12;startSize=8;endSize=8;entryX=0.5;entryY=0;entryDx=0;entryDy=0;" parent="1" source="kuhHr71bj72E31eIpp_Y-1" target="kuhHr71bj72E31eIpp_Y-4" edge="1">
          <mxGeometry relative="1" as="geometry">
            <mxPoint x="69" y="13" as="targetPoint" />
          </mxGeometry>
        </mxCell>
        <mxCell id="kuhHr71bj72E31eIpp_Y-1" value="Begin" style="rounded=1;whiteSpace=wrap;html=1;fontSize=16;arcSize=50;" parent="1" vertex="1">
          <mxGeometry x="9" y="-167" width="120" height="60" as="geometry" />
        </mxCell>
        <mxCell id="kuhHr71bj72E31eIpp_Y-12" value="" style="edgeStyle=none;curved=1;rounded=0;orthogonalLoop=1;jettySize=auto;html=1;fontSize=12;startSize=8;endSize=8;" parent="1" source="kuhHr71bj72E31eIpp_Y-4" target="kuhHr71bj72E31eIpp_Y-11" edge="1">
          <mxGeometry relative="1" as="geometry" />
        </mxCell>
        <mxCell id="kuhHr71bj72E31eIpp_Y-4" value="Obtain number (integer) and set it to: n" style="shape=parallelogram;perimeter=parallelogramPerimeter;whiteSpace=wrap;html=1;fixedSize=1;fontSize=16;spacing=12;" parent="1" vertex="1">
          <mxGeometry x="-7" y="-33" width="148" height="111" as="geometry" />
        </mxCell>
        <mxCell id="kuhHr71bj72E31eIpp_Y-20" value="" style="edgeStyle=none;curved=1;rounded=0;orthogonalLoop=1;jettySize=auto;html=1;fontSize=12;startSize=8;endSize=8;" parent="1" source="kuhHr71bj72E31eIpp_Y-5" target="kuhHr71bj72E31eIpp_Y-19" edge="1">
          <mxGeometry relative="1" as="geometry" />
        </mxCell>
        <mxCell id="kuhHr71bj72E31eIpp_Y-5" value="i &amp;lt; n" style="whiteSpace=wrap;html=1;fontSize=16;spacing=12;" parent="1" vertex="1">
          <mxGeometry x="7" y="315" width="134" height="70" as="geometry" />
        </mxCell>
        <mxCell id="kuhHr71bj72E31eIpp_Y-7" value="" style="endArrow=classic;html=1;rounded=0;fontSize=12;startSize=8;endSize=8;curved=1;exitX=1;exitY=0.5;exitDx=0;exitDy=0;" parent="1" source="kuhHr71bj72E31eIpp_Y-5" edge="1">
          <mxGeometry width="50" height="50" relative="1" as="geometry">
            <mxPoint x="41" y="207" as="sourcePoint" />
            <mxPoint x="309" y="352" as="targetPoint" />
          </mxGeometry>
        </mxCell>
        <mxCell id="kuhHr71bj72E31eIpp_Y-10" value="false" style="edgeLabel;html=1;align=center;verticalAlign=middle;resizable=0;points=[];fontSize=16;" parent="kuhHr71bj72E31eIpp_Y-7" vertex="1" connectable="0">
          <mxGeometry x="-0.1347" y="5" relative="1" as="geometry">
            <mxPoint as="offset" />
          </mxGeometry>
        </mxCell>
        <mxCell id="kuhHr71bj72E31eIpp_Y-60" value="" style="edgeStyle=none;curved=1;rounded=0;orthogonalLoop=1;jettySize=auto;html=1;fontSize=12;startSize=8;endSize=8;" parent="1" source="kuhHr71bj72E31eIpp_Y-8" target="kuhHr71bj72E31eIpp_Y-59" edge="1">
          <mxGeometry relative="1" as="geometry" />
        </mxCell>
        <mxCell id="kuhHr71bj72E31eIpp_Y-8" value="Output factorial" style="shape=parallelogram;perimeter=parallelogramPerimeter;whiteSpace=wrap;html=1;fixedSize=1;fontSize=16;spacing=12;" parent="1" vertex="1">
          <mxGeometry x="248" y="455" width="120" height="60" as="geometry" />
        </mxCell>
        <mxCell id="kuhHr71bj72E31eIpp_Y-9" value="" style="endArrow=classic;html=1;rounded=0;fontSize=12;startSize=8;endSize=8;curved=1;entryX=0.5;entryY=0;entryDx=0;entryDy=0;" parent="1" target="kuhHr71bj72E31eIpp_Y-8" edge="1">
          <mxGeometry width="50" height="50" relative="1" as="geometry">
            <mxPoint x="308" y="348" as="sourcePoint" />
            <mxPoint x="377" y="238" as="targetPoint" />
          </mxGeometry>
        </mxCell>
        <mxCell id="kuhHr71bj72E31eIpp_Y-17" value="" style="edgeStyle=none;curved=1;rounded=0;orthogonalLoop=1;jettySize=auto;html=1;fontSize=12;startSize=8;endSize=8;" parent="1" source="kuhHr71bj72E31eIpp_Y-11" target="kuhHr71bj72E31eIpp_Y-16" edge="1">
          <mxGeometry relative="1" as="geometry" />
        </mxCell>
        <mxCell id="kuhHr71bj72E31eIpp_Y-11" value="factorialTotal = n" style="whiteSpace=wrap;html=1;fontSize=16;spacing=12;" parent="1" vertex="1">
          <mxGeometry x="-14" y="123" width="162" height="60" as="geometry" />
        </mxCell>
        <mxCell id="kuhHr71bj72E31eIpp_Y-18" value="" style="edgeStyle=none;curved=1;rounded=0;orthogonalLoop=1;jettySize=auto;html=1;fontSize=12;startSize=8;endSize=8;" parent="1" source="kuhHr71bj72E31eIpp_Y-16" target="kuhHr71bj72E31eIpp_Y-5" edge="1">
          <mxGeometry relative="1" as="geometry" />
        </mxCell>
        <mxCell id="kuhHr71bj72E31eIpp_Y-16" value="i = 1" style="rounded=0;whiteSpace=wrap;html=1;fontSize=16;" parent="1" vertex="1">
          <mxGeometry x="14" y="219" width="120" height="60" as="geometry" />
        </mxCell>
        <mxCell id="kuhHr71bj72E31eIpp_Y-22" value="" style="edgeStyle=none;curved=1;rounded=0;orthogonalLoop=1;jettySize=auto;html=1;fontSize=12;startSize=8;endSize=8;entryX=1;entryY=1;entryDx=0;entryDy=0;" parent="1" source="kuhHr71bj72E31eIpp_Y-19" target="kuhHr71bj72E31eIpp_Y-21" edge="1">
          <mxGeometry relative="1" as="geometry" />
        </mxCell>
        <mxCell id="kuhHr71bj72E31eIpp_Y-19" value="factorialTotal&amp;nbsp;*= i" style="whiteSpace=wrap;html=1;fontSize=16;spacing=12;" parent="1" vertex="1">
          <mxGeometry x="-10" y="510" width="173" height="60" as="geometry" />
        </mxCell>
        <mxCell id="kuhHr71bj72E31eIpp_Y-24" value="" style="edgeStyle=none;curved=1;rounded=0;orthogonalLoop=1;jettySize=auto;html=1;fontSize=12;startSize=8;endSize=8;entryX=0;entryY=0.5;entryDx=0;entryDy=0;" parent="1" source="kuhHr71bj72E31eIpp_Y-21" target="kuhHr71bj72E31eIpp_Y-5" edge="1">
          <mxGeometry relative="1" as="geometry">
            <mxPoint x="-254" y="300" as="targetPoint" />
          </mxGeometry>
        </mxCell>
        <mxCell id="kuhHr71bj72E31eIpp_Y-21" value="i +=1" style="whiteSpace=wrap;html=1;fontSize=16;spacing=12;" parent="1" vertex="1">
          <mxGeometry x="-314" y="420" width="120" height="60" as="geometry" />
        </mxCell>
        <mxCell id="kuhHr71bj72E31eIpp_Y-25" value="Factorial Subroutine" style="rounded=0;whiteSpace=wrap;html=1;fontSize=16;" parent="1" vertex="1">
          <mxGeometry x="14" y="-296" width="120" height="60" as="geometry" />
        </mxCell>
        <mxCell id="kuhHr71bj72E31eIpp_Y-26" value="" style="edgeStyle=none;curved=1;rounded=0;orthogonalLoop=1;jettySize=auto;html=1;fontSize=12;startSize=8;endSize=8;entryX=0.5;entryY=0;entryDx=0;entryDy=0;" parent="1" source="kuhHr71bj72E31eIpp_Y-27" target="kuhHr71bj72E31eIpp_Y-29" edge="1">
          <mxGeometry relative="1" as="geometry">
            <mxPoint x="1016" y="33" as="targetPoint" />
          </mxGeometry>
        </mxCell>
        <mxCell id="kuhHr71bj72E31eIpp_Y-27" value="Begin" style="rounded=1;whiteSpace=wrap;html=1;fontSize=16;arcSize=50;" parent="1" vertex="1">
          <mxGeometry x="956" y="-147" width="120" height="60" as="geometry" />
        </mxCell>
        <mxCell id="kuhHr71bj72E31eIpp_Y-28" value="" style="edgeStyle=none;curved=1;rounded=0;orthogonalLoop=1;jettySize=auto;html=1;fontSize=12;startSize=8;endSize=8;" parent="1" source="kuhHr71bj72E31eIpp_Y-29" target="kuhHr71bj72E31eIpp_Y-37" edge="1">
          <mxGeometry relative="1" as="geometry" />
        </mxCell>
        <mxCell id="kuhHr71bj72E31eIpp_Y-29" value="Obtain number (integer) and set it to: n" style="shape=parallelogram;perimeter=parallelogramPerimeter;whiteSpace=wrap;html=1;fixedSize=1;fontSize=16;spacing=12;" parent="1" vertex="1">
          <mxGeometry x="940" y="-13" width="148" height="111" as="geometry" />
        </mxCell>
        <mxCell id="kuhHr71bj72E31eIpp_Y-47" value="" style="edgeStyle=none;curved=1;rounded=0;orthogonalLoop=1;jettySize=auto;html=1;fontSize=12;startSize=8;endSize=8;" parent="1" source="kuhHr71bj72E31eIpp_Y-31" target="kuhHr71bj72E31eIpp_Y-45" edge="1">
          <mxGeometry relative="1" as="geometry" />
        </mxCell>
        <mxCell id="kuhHr71bj72E31eIpp_Y-31" value="i &amp;lt; Math.sqrt(n)" style="whiteSpace=wrap;html=1;fontSize=16;spacing=12;" parent="1" vertex="1">
          <mxGeometry x="954" y="335" width="134" height="70" as="geometry" />
        </mxCell>
        <mxCell id="kuhHr71bj72E31eIpp_Y-32" value="" style="endArrow=classic;html=1;rounded=0;fontSize=12;startSize=8;endSize=8;curved=1;exitX=1;exitY=0.5;exitDx=0;exitDy=0;" parent="1" source="kuhHr71bj72E31eIpp_Y-31" edge="1">
          <mxGeometry width="50" height="50" relative="1" as="geometry">
            <mxPoint x="988" y="227" as="sourcePoint" />
            <mxPoint x="1403" y="374" as="targetPoint" />
          </mxGeometry>
        </mxCell>
        <mxCell id="kuhHr71bj72E31eIpp_Y-33" value="false" style="edgeLabel;html=1;align=center;verticalAlign=middle;resizable=0;points=[];fontSize=16;" parent="kuhHr71bj72E31eIpp_Y-32" vertex="1" connectable="0">
          <mxGeometry x="-0.1347" y="5" relative="1" as="geometry">
            <mxPoint as="offset" />
          </mxGeometry>
        </mxCell>
        <mxCell id="kuhHr71bj72E31eIpp_Y-58" style="edgeStyle=none;curved=1;rounded=0;orthogonalLoop=1;jettySize=auto;html=1;fontSize=12;startSize=8;endSize=8;" parent="1" source="kuhHr71bj72E31eIpp_Y-34" target="kuhHr71bj72E31eIpp_Y-56" edge="1">
          <mxGeometry relative="1" as="geometry" />
        </mxCell>
        <mxCell id="kuhHr71bj72E31eIpp_Y-34" value="Output isPrime" style="shape=parallelogram;perimeter=parallelogramPerimeter;whiteSpace=wrap;html=1;fixedSize=1;fontSize=16;spacing=12;" parent="1" vertex="1">
          <mxGeometry x="1341" y="465" width="120" height="60" as="geometry" />
        </mxCell>
        <mxCell id="kuhHr71bj72E31eIpp_Y-35" value="" style="endArrow=classic;html=1;rounded=0;fontSize=12;startSize=8;endSize=8;curved=1;entryX=0.5;entryY=0;entryDx=0;entryDy=0;" parent="1" target="kuhHr71bj72E31eIpp_Y-34" edge="1">
          <mxGeometry width="50" height="50" relative="1" as="geometry">
            <mxPoint x="1401" y="370" as="sourcePoint" />
            <mxPoint x="1324" y="258" as="targetPoint" />
          </mxGeometry>
        </mxCell>
        <mxCell id="kuhHr71bj72E31eIpp_Y-36" value="" style="edgeStyle=none;curved=1;rounded=0;orthogonalLoop=1;jettySize=auto;html=1;fontSize=12;startSize=8;endSize=8;" parent="1" source="kuhHr71bj72E31eIpp_Y-37" target="kuhHr71bj72E31eIpp_Y-39" edge="1">
          <mxGeometry relative="1" as="geometry" />
        </mxCell>
        <mxCell id="kuhHr71bj72E31eIpp_Y-37" value="isPrime = true" style="whiteSpace=wrap;html=1;fontSize=16;spacing=12;" parent="1" vertex="1">
          <mxGeometry x="954" y="142" width="120" height="60" as="geometry" />
        </mxCell>
        <mxCell id="kuhHr71bj72E31eIpp_Y-38" value="" style="edgeStyle=none;curved=1;rounded=0;orthogonalLoop=1;jettySize=auto;html=1;fontSize=12;startSize=8;endSize=8;" parent="1" source="kuhHr71bj72E31eIpp_Y-39" target="kuhHr71bj72E31eIpp_Y-31" edge="1">
          <mxGeometry relative="1" as="geometry" />
        </mxCell>
        <mxCell id="kuhHr71bj72E31eIpp_Y-39" value="i = 2" style="rounded=0;whiteSpace=wrap;html=1;fontSize=16;" parent="1" vertex="1">
          <mxGeometry x="961" y="239" width="120" height="60" as="geometry" />
        </mxCell>
        <mxCell id="kuhHr71bj72E31eIpp_Y-42" value="" style="edgeStyle=none;curved=1;rounded=0;orthogonalLoop=1;jettySize=auto;html=1;fontSize=12;startSize=8;endSize=8;entryX=0;entryY=0.5;entryDx=0;entryDy=0;" parent="1" source="kuhHr71bj72E31eIpp_Y-43" target="kuhHr71bj72E31eIpp_Y-31" edge="1">
          <mxGeometry relative="1" as="geometry">
            <mxPoint x="693" y="320" as="targetPoint" />
          </mxGeometry>
        </mxCell>
        <mxCell id="kuhHr71bj72E31eIpp_Y-43" value="i +=1" style="whiteSpace=wrap;html=1;fontSize=16;spacing=12;" parent="1" vertex="1">
          <mxGeometry x="633" y="440" width="120" height="60" as="geometry" />
        </mxCell>
        <mxCell id="kuhHr71bj72E31eIpp_Y-44" value="Is Prime Subroutine" style="rounded=0;whiteSpace=wrap;html=1;fontSize=16;" parent="1" vertex="1">
          <mxGeometry x="961" y="-276" width="120" height="60" as="geometry" />
        </mxCell>
        <mxCell id="kuhHr71bj72E31eIpp_Y-53" value="true" style="edgeStyle=none;curved=1;rounded=0;orthogonalLoop=1;jettySize=auto;html=1;fontSize=12;startSize=8;endSize=8;" parent="1" source="kuhHr71bj72E31eIpp_Y-45" target="kuhHr71bj72E31eIpp_Y-50" edge="1">
          <mxGeometry relative="1" as="geometry" />
        </mxCell>
        <mxCell id="kuhHr71bj72E31eIpp_Y-45" value="if n%i = 0" style="rhombus;whiteSpace=wrap;html=1;fontSize=16;spacing=12;" parent="1" vertex="1">
          <mxGeometry x="962" y="502" width="118" height="126" as="geometry" />
        </mxCell>
        <mxCell id="kuhHr71bj72E31eIpp_Y-48" value="" style="endArrow=classic;html=1;rounded=0;fontSize=12;startSize=8;endSize=8;curved=1;exitX=0;exitY=0.5;exitDx=0;exitDy=0;entryX=1;entryY=1;entryDx=0;entryDy=0;" parent="1" source="kuhHr71bj72E31eIpp_Y-45" target="kuhHr71bj72E31eIpp_Y-43" edge="1">
          <mxGeometry width="50" height="50" relative="1" as="geometry">
            <mxPoint x="851" y="417" as="sourcePoint" />
            <mxPoint x="901" y="367" as="targetPoint" />
          </mxGeometry>
        </mxCell>
        <mxCell id="kuhHr71bj72E31eIpp_Y-52" value="false" style="edgeLabel;html=1;align=center;verticalAlign=middle;resizable=0;points=[];fontSize=16;" parent="kuhHr71bj72E31eIpp_Y-48" vertex="1" connectable="0">
          <mxGeometry x="-0.2943" relative="1" as="geometry">
            <mxPoint y="-1" as="offset" />
          </mxGeometry>
        </mxCell>
        <mxCell id="kuhHr71bj72E31eIpp_Y-54" value="" style="edgeStyle=none;curved=1;rounded=0;orthogonalLoop=1;jettySize=auto;html=1;fontSize=12;startSize=8;endSize=8;entryX=0;entryY=0.5;entryDx=0;entryDy=0;" parent="1" source="kuhHr71bj72E31eIpp_Y-50" target="kuhHr71bj72E31eIpp_Y-34" edge="1">
          <mxGeometry relative="1" as="geometry" />
        </mxCell>
        <mxCell id="kuhHr71bj72E31eIpp_Y-50" value="isPrime = true" style="shape=parallelogram;perimeter=parallelogramPerimeter;whiteSpace=wrap;html=1;fixedSize=1;fontSize=16;spacing=12;" parent="1" vertex="1">
          <mxGeometry x="1148" y="535" width="120" height="60" as="geometry" />
        </mxCell>
        <mxCell id="kuhHr71bj72E31eIpp_Y-56" value="Finish" style="rounded=1;whiteSpace=wrap;html=1;fontSize=16;arcSize=50;" parent="1" vertex="1">
          <mxGeometry x="1341" y="612" width="120" height="60" as="geometry" />
        </mxCell>
        <mxCell id="kuhHr71bj72E31eIpp_Y-59" value="Finish" style="rounded=1;whiteSpace=wrap;html=1;fontSize=16;arcSize=50;" parent="1" vertex="1">
          <mxGeometry x="246" y="581" width="120" height="60" as="geometry" />
        </mxCell>
        <mxCell id="6Nwa8Fpml6rlnimKw_pK-2" value="" style="edgeStyle=orthogonalEdgeStyle;rounded=0;orthogonalLoop=1;jettySize=auto;html=1;" edge="1" parent="1" source="kuhHr71bj72E31eIpp_Y-62" target="kuhHr71bj72E31eIpp_Y-87">
          <mxGeometry relative="1" as="geometry" />
        </mxCell>
        <mxCell id="kuhHr71bj72E31eIpp_Y-62" value="calcFibNum(long n)" style="rounded=1;whiteSpace=wrap;html=1;fontSize=16;arcSize=50;spacing=12;" parent="1" vertex="1">
          <mxGeometry x="1952" y="-158" width="183" height="65" as="geometry" />
        </mxCell>
        <mxCell id="kuhHr71bj72E31eIpp_Y-94" style="edgeStyle=none;curved=1;rounded=0;orthogonalLoop=1;jettySize=auto;html=1;entryX=0;entryY=0.5;entryDx=0;entryDy=0;fontSize=12;startSize=8;endSize=8;exitX=0.012;exitY=0.65;exitDx=0;exitDy=0;exitPerimeter=0;" parent="1" source="kuhHr71bj72E31eIpp_Y-75" target="kuhHr71bj72E31eIpp_Y-87" edge="1">
          <mxGeometry relative="1" as="geometry">
            <Array as="points">
              <mxPoint x="1839" y="165" />
              <mxPoint x="1845" y="53" />
            </Array>
          </mxGeometry>
        </mxCell>
        <mxCell id="kuhHr71bj72E31eIpp_Y-75" value="return fib(n-1) + fib(n-2)" style="rounded=0;whiteSpace=wrap;html=1;fontSize=16;" parent="1" vertex="1">
          <mxGeometry x="1988.5" y="161" width="120" height="60" as="geometry" />
        </mxCell>
        <mxCell id="kuhHr71bj72E31eIpp_Y-85" value="Fibonacci Number Subroutine" style="rounded=0;whiteSpace=wrap;html=1;fontSize=16;" parent="1" vertex="1">
          <mxGeometry x="1983.5" y="-276" width="120" height="60" as="geometry" />
        </mxCell>
        <mxCell id="kuhHr71bj72E31eIpp_Y-91" value="true" style="edgeStyle=none;curved=1;rounded=0;orthogonalLoop=1;jettySize=auto;html=1;fontSize=12;startSize=8;endSize=8;" parent="1" source="kuhHr71bj72E31eIpp_Y-87" target="kuhHr71bj72E31eIpp_Y-90" edge="1">
          <mxGeometry relative="1" as="geometry" />
        </mxCell>
        <mxCell id="kuhHr71bj72E31eIpp_Y-92" value="false" style="edgeStyle=none;curved=1;rounded=0;orthogonalLoop=1;jettySize=auto;html=1;fontSize=12;startSize=8;endSize=8;" parent="1" source="kuhHr71bj72E31eIpp_Y-87" target="kuhHr71bj72E31eIpp_Y-75" edge="1">
          <mxGeometry relative="1" as="geometry" />
        </mxCell>
        <mxCell id="kuhHr71bj72E31eIpp_Y-87" value="if n==0 || n ==1" style="rhombus;whiteSpace=wrap;html=1;fontSize=16;spacing=12;" parent="1" vertex="1">
          <mxGeometry x="1966" y="-28" width="155" height="126" as="geometry" />
        </mxCell>
        <mxCell id="kuhHr71bj72E31eIpp_Y-90" value="Return n" style="shape=parallelogram;perimeter=parallelogramPerimeter;whiteSpace=wrap;html=1;fixedSize=1;fontSize=16;" parent="1" vertex="1">
          <mxGeometry x="2277.5" y="8" width="120" height="60" as="geometry" />
        </mxCell>
      </root>
    </mxGraphModel>
  </diagram>
</mxfile>
